# xmcd
#
# Track frame offsets:
#	150
#	6609
#	21407
#	29421
#	51926
#	73163
#	87650
#	101818
#	114402
#	139422
#	156991
#
# Disc length: 2296 seconds
#
# Revision: 0
# Processed by: cddbd v1.5.1PL0 Copyright (c) Steve Scherf et al.
# Submitted via: dBpowerAMP V4.0
#
DISCID=a608f60b
DTITLE=Remate - Ballads Don't Change Things
DYEAR=2004
DGENRE=Pop-Folk
TTITLE0=Introducing
TTITLE1=Riddle
TTITLE2=Once Upon A Smile
TTITLE3=My Symphony
TTITLE4=My Heart Is Broken
TTITLE5=Dusty Town
TTITLE6=Miss Fit
TTITLE7=No Land
TTITLE8=Kill A Man Is Kill A Star
TTITLE9=Ballads Don't Change Things
TTITLE10=Farewell
EXTD=
EXTT0=
EXTT1=
EXTT2=
EXTT3=
EXTT4=
EXTT5=
EXTT6=
EXTT7=
EXTT8=
EXTT9=
EXTT10=
PLAYORDER=
